<svg id="Face-title" xmlns="http://www.w3.org/2000/svg" viewBox="0 0 105.2 56.62"><defs><style>.cls-1{fill:none;}.cls-1,.cls-3{stroke:#231f20;stroke-miterlimit:10;stroke-width:0.5px;}.cls-2,.cls-3{fill:#231f20;}</style></defs><rect id="Border" class="cls-1" x="0.25" y="0.25" width="104.7" height="56.12"/><g id="Eyebrow2"><path class="cls-2" d="M217.33,457.46c13.13-5.55,23.45-5.66,31.38-1.15" transform="translate(-209.01 -443.13)"/><path class="cls-2" d="M217.33,457.46a103.75,103.75,0,0,1,31.38-1.15" transform="translate(-209.01 -443.13)"/><path class="cls-2" d="M217.33,457.46q13.15,2.15,31.38-1.15" transform="translate(-209.01 -443.13)"/></g><g id="Eyebrow1"><path class="cls-2" d="M275.41,456.2c8.2-4.73,18.52-4.36,31,1.34" transform="translate(-209.01 -443.13)"/><path class="cls-2" d="M275.41,456.2c11.36-1.19,21.66-.8,31,1.34" transform="translate(-209.01 -443.13)"/><path class="cls-2" d="M275.41,456.2c14.52,2.35,24.8,2.76,31,1.34" transform="translate(-209.01 -443.13)"/></g><path class="cls-1" d="M217.52,471.43c11.28-9.4,23-9.82,35.27-.1" transform="translate(-209.01 -443.13)"/><path class="cls-1" d="M217.52,471.43c12.19,6.19,23.94,6.05,35.27-.1" transform="translate(-209.01 -443.13)"/><line class="cls-1" x1="10.04" y1="22.35" x2="12.48" y2="25.38"/><line class="cls-1" x1="16.07" y1="19.55" x2="17.85" y2="22.64"/><line class="cls-1" x1="23.87" y1="17.77" x2="24.17" y2="21.16"/><line class="cls-1" x1="32.16" y1="18.5" x2="31.1" y2="21.51"/><line class="cls-1" x1="38.11" y1="20.01" x2="36.11" y2="23.4"/><line class="cls-1" x1="42.29" y1="22.46" x2="39.96" y2="25.49"/><circle id="Eye2" class="cls-3" cx="234.62" cy="470.2" r="5.07" transform="translate(-498.58 63.9) rotate(-67.5)"/><line class="cls-1" x1="47.05" y1="31.2" x2="40.48" y2="35.13"/><line class="cls-1" x1="56.17" y1="31.32" x2="62.78" y2="35.09"/><line class="cls-1" x1="50.78" y1="31.36" x2="47.72" y2="51.61"/><path class="cls-1" d="M269.45,471.31q17.67-14.44,35.35.13" transform="translate(-209.01 -443.13)"/><path class="cls-1" d="M269.45,471.31c12.12,6.14,23.92,6.42,35.35.13" transform="translate(-209.01 -443.13)"/><line class="cls-1" x1="62.53" y1="22.37" x2="64.64" y2="25.16"/><line class="cls-1" x1="68.14" y1="20.03" x2="69.53" y2="22.67"/><line class="cls-1" x1="71.86" y1="18.9" x2="72.71" y2="21.65"/><line class="cls-1" x1="78.34" y1="18.06" x2="78.11" y2="20.99"/><line class="cls-1" x1="85.5" y1="19.06" x2="84.58" y2="21.99"/><line class="cls-1" x1="89.76" y1="20.53" x2="88.15" y2="23.37"/><line class="cls-1" x1="93.7" y1="22.45" x2="91.71" y2="25.33"/><circle id="Eye1" class="cls-3" cx="78.11" cy="26.99" r="5.04"/></svg>